<svg xmlns="http://www.w3.org/2000/svg" width="120" height="120" viewBox="0 0 120 120">
  <!-- Khatam: achthoekige sterren (twee gedraaide vierkanten) met ruiten
       ertussen. Naadloos: de hoeksterren sluiten bij herhaling aan. -->
  <g fill="none" stroke="#D69A2D" stroke-width="1.15" stroke-linejoin="round">
    <polygon points="86.00,60.00 78.38,67.62 78.38,78.38 67.62,78.38 60.00,86.00 52.38,78.38 41.62,78.38 41.62,67.62 34.00,60.00 41.62,52.38 41.62,41.62 52.38,41.62 60.00,34.00 67.62,41.62 78.38,41.62 78.38,52.38"/>
    <polygon points="26.00,0.00 18.38,7.62 18.38,18.38 7.62,18.38 0.00,26.00 -7.62,18.38 -18.38,18.38 -18.38,7.62 -26.00,0.00 -18.38,-7.62 -18.38,-18.38 -7.62,-18.38 -0.00,-26.00 7.62,-18.38 18.38,-18.38 18.38,-7.62"/>
    <polygon points="146.00,0.00 138.38,7.62 138.38,18.38 127.62,18.38 120.00,26.00 112.38,18.38 101.62,18.38 101.62,7.62 94.00,0.00 101.62,-7.62 101.62,-18.38 112.38,-18.38 120.00,-26.00 127.62,-18.38 138.38,-18.38 138.38,-7.62"/>
    <polygon points="26.00,120.00 18.38,127.62 18.38,138.38 7.62,138.38 0.00,146.00 -7.62,138.38 -18.38,138.38 -18.38,127.62 -26.00,120.00 -18.38,112.38 -18.38,101.62 -7.62,101.62 -0.00,94.00 7.62,101.62 18.38,101.62 18.38,112.38"/>
    <polygon points="146.00,120.00 138.38,127.62 138.38,138.38 127.62,138.38 120.00,146.00 112.38,138.38 101.62,138.38 101.62,127.62 94.00,120.00 101.62,112.38 101.62,101.62 112.38,101.62 120.00,94.00 127.62,101.62 138.38,101.62 138.38,112.38"/>
    <polygon points="60.00,-11.50 71.50,0.00 60.00,11.50 48.50,0.00"/>
    <polygon points="0.00,48.50 11.50,60.00 0.00,71.50 -11.50,60.00"/>
    <polygon points="120.00,48.50 131.50,60.00 120.00,71.50 108.50,60.00"/>
    <polygon points="60.00,108.50 71.50,120.00 60.00,131.50 48.50,120.00"/>
  </g>
</svg>
